{"title":"Tum Ho Yaara (2011) Hindi 720p HDRip x264 AAC ESubs - Downloadhu","uid":13427915,"size":1017327392,"categoryP":"video","categoryS":"movies","magnet":"?xt=urn:btih:d531cf04c4fd89d194d7a13d86ad7dbc660841c8&amp;dn=Tum+Ho+Yaara+%282011%29+Hindi+720p+HDRip+x264+AAC+ESubs+-+Downloadhu&amp;tr=udp%3A%2F%2Ftracker.leechers-paradise.org%3A6969&amp;tr=udp%3A%2F%2Fzer0day.ch%3A1337&amp;tr=udp%3A%2F%2Fopen.demonii.com%3A1337&amp;tr=udp%3A%2F%2Ftracker.coppersurfer.tk%3A6969&amp;tr=udp%3A%2F%2Fexodus.desync.com%3A6969","seeders":0,"leechers":0,"uploader":"dhencode","files":1,"time":1454606547,"description":"[center][b]Format                                   : AVC\r\nFormat/Info                              : Advanced Video Codec\r\nFormat profile                           :   \r\nFormat settings, CABAC                   : Yes\r\nFormat settings, ReFrames                : 16 frames\r\nCodec ID                                 : V_MPEG4/ISO/AVC\r\nDuration                                 : 2h 15mn\r\nBit rate                                 : 966 Kbps\r\nWidth                                    : 1 280 pixels\r\nHeight                                   : 544 pixels\r\nDisplay aspect ratio                     : 2.35:1\r\nFrame rate mode                          : Constant\r\nFrame rate                               : 25.000 fps\r\nColor space                              : YUV\r\nChroma subsampling                       : 4:2:0\r\nBit depth                                : 8 bits\r\nScan type                                : Progressive\r\nBits/(Pixel*Frame)                       : 0.055\r\nStream size                              : 937 MiB (97%)\r\nDefault                                  : Yes\r\nForced                                   : No\r\n\r\nAudio\r\nID                                       : 2\r\nFormat                                   : AAC\r\nFormat/Info                              : Advanced Audio Codec\r\nFormat profile                           : LC\r\nCodec ID                                 : A_AAC\r\nDuration                                 : 2h 15mn\r\nBit rate                                 : 32.0 Kbps\r\nChannel(s)                               : 2 channels\r\nChannel positions                        : Front: L R\r\nSampling rate                            : 48.0 KHz\r\nFrame rate                               : 46.875 fps (1024 spf)\r\nCompression mode                         : Lossy\r\nStream size                              : 31.1 MiB (3%)\r\nLanguage                                 : Hindi\r\nDefault                                  : Yes\r\nForced                                   : No[/b]\r\n\r\n[url=http://extraimago.com/image/vhC][img]http://extraimago.com/images/2016/02/04/TumHoYaara2011Hindi720pHDRipx264AACESubs-Downloadhub.mkv.jpg[/img][/url][/center]","torrent":{"xt":"urn:btih:d531cf04c4fd89d194d7a13d86ad7dbc660841c8","amp;dn":"Tum+Ho+Yaara+%282011%29+Hindi+720p+HDRip+x264+AAC+ESubs+-+Downloadhu","amp;tr":["udp%3A%2F%2Ftracker.leechers-paradise.org%3A6969","udp%3A%2F%2Fzer0day.ch%3A1337","udp%3A%2F%2Fopen.demonii.com%3A1337","udp%3A%2F%2Ftracker.coppersurfer.tk%3A6969","udp%3A%2F%2Fexodus.desync.com%3A6969"],"infoHash":"d531cf04c4fd89d194d7a13d86ad7dbc660841c8","infoHashBuffer":{"type":"Buffer","data":[213,49,207,4,196,253,137,209,148,215,161,61,134,173,125,188,102,8,65,200]},"announce":[],"urlList":[]}}